HIERARCHY
ROOT joint_Root
{
	OFFSET 0.0 0.0 0.0
	CHANNELS 6 Xposition Yposition Zposition Zrotation Xrotation Yrotation 
	JOINT Hips
	{
		OFFSET -0.726466 93.3139 -2.00062
		CHANNELS 6 Xposition Yposition Zposition Zrotation Xrotation Yrotation 
		JOINT Spine
		{
			OFFSET 15.7357 0.0 0.0
			CHANNELS 6 Xposition Yposition Zposition Zrotation Xrotation Yrotation 
			JOINT Chest
			{
				OFFSET 8.98455 -0.406207 0.0
				CHANNELS 6 Xposition Yposition Zposition Zrotation Xrotation Yrotation 
				JOINT Neck
				{
					OFFSET 16.3773 0.0 0.0
					CHANNELS 6 Xposition Yposition Zposition Zrotation Xrotation Yrotation 
					JOINT Head
					{
						OFFSET 6.45672 0.0 0.0
						CHANNELS 6 Xposition Yposition Zposition Zrotation Xrotation Yrotation 
						End Site
						{
							OFFSET 0.0 0.0 0.0
						}
					}
				}
				JOINT Shoulder_L
				{
					OFFSET 12.9942 -0.242716 4.98039
					CHANNELS 6 Xposition Yposition Zposition Zrotation Xrotation Yrotation 
					JOINT UpperArm_L
					{
						OFFSET 5.34809 0.0 0.0
						CHANNELS 6 Xposition Yposition Zposition Zrotation Xrotation Yrotation 
						JOINT LowerArm_L
						{
							OFFSET 24.3286 1.87007e-05 0.0
							CHANNELS 6 Xposition Yposition Zposition Zrotation Xrotation Yrotation 
							JOINT Hand_L
							{
								OFFSET 22.2916 0.0 0.0
								CHANNELS 6 Xposition Yposition Zposition Zrotation Xrotation Yrotation 
								End Site
								{
									OFFSET 0.0 0.0 0.0
								}
							}
						}
					}
				}
				JOINT Shoulder_R
				{
					OFFSET 12.9945 -0.242716 -4.98039
					CHANNELS 6 Xposition Yposition Zposition Zrotation Xrotation Yrotation 
					JOINT UpperArm_R
					{
						OFFSET -5.34813 0.0 0.0
						CHANNELS 6 Xposition Yposition Zposition Zrotation Xrotation Yrotation 
						JOINT LowerArm_R
						{
							OFFSET -24.3289 0.000322201 0.0
							CHANNELS 6 Xposition Yposition Zposition Zrotation Xrotation Yrotation 
							JOINT Hand_R
							{
								OFFSET -22.2915 -0.000108084 0.0
								CHANNELS 6 Xposition Yposition Zposition Zrotation Xrotation Yrotation 
								End Site
								{
									OFFSET 0.0 0.0 0.0
								}
							}
						}
					}
				}
			}
		}
		JOINT UpperLeg_L
		{
			OFFSET -2.19248 -6.46944 0.0
			CHANNELS 6 Xposition Yposition Zposition Zrotation Xrotation Yrotation 
			JOINT LowerLeg_L
			{
				OFFSET 39.0811 0.0 -1.23785e-05
				CHANNELS 6 Xposition Yposition Zposition Zrotation Xrotation Yrotation 
				JOINT Foot_L
				{
					OFFSET 40.9854 0.0 -1.26872e-05
					CHANNELS 6 Xposition Yposition Zposition Zrotation Xrotation Yrotation 
					JOINT Toes_L
					{
						OFFSET 11.7543 0.0 0.0
						CHANNELS 6 Xposition Yposition Zposition Zrotation Xrotation Yrotation 
						End Site
						{
							OFFSET 0.0 0.0 0.0
						}
					}
				}
			}
		}
		JOINT UpperLeg_R
		{
			OFFSET -2.19251 6.46944 0.0
			CHANNELS 6 Xposition Yposition Zposition Zrotation Xrotation Yrotation 
			JOINT LowerLeg_R
			{
				OFFSET -39.0811 -0.00228153 -0.0401928
				CHANNELS 6 Xposition Yposition Zposition Zrotation Xrotation Yrotation 
				JOINT Foot_R
				{
					OFFSET -40.9854 0.0 0.0
					CHANNELS 6 Xposition Yposition Zposition Zrotation Xrotation Yrotation 
					JOINT Toes_R
					{
						OFFSET -11.7543 0.0 0.0
						CHANNELS 6 Xposition Yposition Zposition Zrotation Xrotation Yrotation 
						End Site
						{
							OFFSET 0.0 0.0 0.0
						}
					}
				}
			}
		}
	}
}
MOTION
Frames:	4
Frame Time:	0.0333333
0.000000 0.000000 0.000000 0.000000 0.000000 -0.000000 -2.312130 92.029500 -1.208470 87.348900 -1.433350 3.267590 15.735700 0.000005 -0.000001 90.203400 86.763900 -89.925400 8.984550 -0.406207 -0.000000 -1.293770 0.001004 0.555890 16.377300 -0.000001 -0.000001 -0.664044 -2.600800 2.674310 6.456720 -0.000001 -0.000000 -3.328100 0.553515 -10.520100 12.994200 -0.242716 4.980390 -89.208600 -2.568130 -72.866500 5.348090 -0.000007 -0.000001 25.537400 78.158600 -76.516700 24.328600 0.000019 0.000005 14.489000 3.428860 -76.968400 22.291600 -0.000001 0.000005 46.115200 5.487250 -36.212600 12.994500 -0.242716 -4.980390 91.555500 -3.252810 -64.425700 -5.348130 -0.000001 -0.000004 -63.551700 -49.556900 -105.585000 -24.328900 0.000322 -0.000009 3.127230 1.449050 -65.172800 -22.291500 -0.000108 -0.000004 16.475500 5.496420 -6.389890 -2.192480 -6.469440 -0.000000 -167.690000 -15.314600 -1.548280 39.081100 -0.000007 -0.000012 -0.179793 0.477348 20.639200 40.985400 -0.000006 -0.000013 -6.726650 3.944640 -63.702200 11.754300 -0.000000 0.000003 -0.000034 -0.000399 -16.593100 -2.192510 6.469440 -0.000001 176.421000 18.558500 178.959000 -39.081100 -0.002282 -0.040193 0.019410 -0.043109 20.466800 -40.985400 0.000008 0.000006 0.003207 1.204680 -64.838400 -11.754300 -0.000006 -0.000006 -0.007086 -0.080400 -19.846200
0.000000 0.000000 0.000000 0.000000 0.000000 -0.000000 -2.316440 92.017800 -1.160840 87.358600 -1.437540 3.287130 15.735700 0.000005 -0.000001 90.261500 86.755800 -89.993000 8.984550 -0.406207 -0.000000 -1.277630 0.008420 0.536885 16.377300 -0.000001 -0.000001 -0.643276 -2.609540 2.692560 6.456720 -0.000001 -0.000000 -3.302200 0.545996 -10.532300 12.994200 -0.242716 4.980390 -89.215300 -2.540900 -72.832000 5.348090 -0.000007 -0.000001 25.387700 78.139500 -76.335700 24.328600 0.000019 0.000005 14.558300 3.438340 -76.996400 22.291600 -0.000001 0.000005 46.111500 5.491950 -36.028900 12.994500 -0.242716 -4.980390 91.557400 -3.257720 -64.431100 -5.348130 -0.000001 -0.000004 -63.349500 -49.603800 -105.442000 -24.328900 0.000322 -0.000009 3.134150 1.452840 -65.164100 -22.291500 -0.000108 -0.000004 16.520800 5.497200 -6.421090 -2.192480 -6.469440 -0.000000 -167.671000 -15.331300 -1.503580 39.081100 -0.000007 -0.000012 -0.180451 0.478269 20.671800 40.985400 -0.000006 -0.000013 -6.728710 4.012990 -63.751500 11.754300 -0.000000 0.000003 -0.000032 -0.000384 -16.592500 -2.192510 6.469440 -0.000001 176.383000 18.566400 178.997000 -39.081100 -0.002282 -0.040193 0.016601 -0.035521 20.499000 -40.985400 0.000008 0.000006 -0.185540 1.179460 -64.868300 -11.754300 -0.000006 -0.000006 -0.007721 -0.085743 -20.064300
0.000000 0.000000 0.000000 0.000000 0.000000 -0.000000 -2.318920 92.025700 -1.125750 87.350000 -1.424140 3.292540 15.735700 0.000005 -0.000001 90.240400 86.751100 -89.975900 8.984550 -0.406207 -0.000000 -1.268240 0.006407 0.528820 16.377300 -0.000001 -0.000001 -0.639265 -2.620420 2.710700 6.456720 -0.000001 -0.000000 -3.280180 0.516861 -10.509500 12.994200 -0.242716 4.980390 -89.217000 -2.534980 -72.828200 5.348090 -0.000007 -0.000001 25.282200 78.139600 -76.224500 24.328600 0.000019 0.000005 14.439600 3.415340 -76.973200 22.291600 -0.000001 0.000005 46.048800 5.486160 -36.255300 12.994500 -0.242716 -4.980390 91.553300 -3.247190 -64.418300 -5.348130 -0.000001 -0.000004 -63.241300 -49.608900 -105.392000 -24.328900 0.000322 -0.000009 3.072540 1.430460 -65.068600 -22.291500 -0.000108 -0.000004 16.425400 5.500370 -6.548400 -2.192480 -6.469440 -0.000000 -167.657000 -15.336600 -1.444720 39.081100 -0.000007 -0.000012 -0.179228 0.476807 20.601100 40.985400 -0.000006 -0.000013 -6.732340 4.015850 -63.732600 11.754300 -0.000000 0.000003 -0.000034 -0.000401 -16.593200 -2.192510 6.469440 -0.000001 176.406000 18.586100 179.053000 -39.081100 -0.002282 -0.040193 0.022792 -0.052224 20.448100 -40.985400 0.000008 0.000006 -0.016606 1.173650 -64.880500 -11.754300 -0.000006 -0.000006 -0.007760 -0.086064 -20.077500
0.000000 0.000000 0.000000 0.000000 0.000000 -0.000000 -2.313760 92.012800 -1.105730 87.356200 -1.449410 3.298100 15.735700 0.000005 -0.000001 90.220400 86.741100 -89.958100 8.984550 -0.406207 -0.000000 -1.248250 0.004440 0.524556 16.377300 -0.000001 -0.000001 -0.609856 -2.632060 2.721840 6.456720 -0.000001 -0.000000 -3.297610 0.518775 -10.515500 12.994200 -0.242716 4.980390 -89.221600 -2.518970 -72.821700 5.348090 -0.000007 -0.000001 25.253800 78.173300 -76.179600 24.328600 0.000019 0.000005 14.522700 3.426070 -77.009100 22.291600 -0.000001 0.000005 46.077000 5.489330 -36.131700 12.994500 -0.242716 -4.980390 91.556300 -3.254680 -64.426000 -5.348130 -0.000001 -0.000004 -63.219400 -49.601900 -105.404000 -24.328900 0.000322 -0.000009 3.111640 1.453060 -65.002900 -22.291500 -0.000108 -0.000004 16.403600 5.499480 -6.512280 -2.192480 -6.469440 -0.000000 -167.659000 -15.339100 -1.455830 39.081100 -0.000007 -0.000012 -0.181464 0.480687 20.682300 40.985400 -0.000006 -0.000013 -6.737040 3.987510 -63.793900 11.754300 -0.000000 0.000003 -0.000032 -0.000379 -16.592300 -2.192510 6.469440 -0.000001 176.364000 18.563200 179.055000 -39.081100 -0.002282 -0.040193 0.018140 -0.039623 20.505800 -40.985400 0.000008 0.000006 -0.071305 1.259500 -64.928500 -11.754300 -0.000006 -0.000006 -0.007586 -0.084616 -20.018300
